<?xml version="1.0" encoding="UTF-8"?>
<svg id="Layer_1" data-name="Layer 1" xmlns="http://www.w3.org/2000/svg" viewBox="0 0 116.12 116.37">
  <defs>
    <style>
      .cls-1, .cls-2 {
        fill: none;
        stroke: #646d55;
        stroke-miterlimit: 10;
        stroke-width: 6px;
      }

      .cls-2 {
        stroke-linecap: round;
      }

      .cls-3 {
        fill: #646d55;
      }
    </style>
  </defs>
  <g>
    <line class="cls-2" x1="2.5" y1="41.79" x2="2.5" y2="113.87"/>
    <line class="cls-1" x1="2.5" y1="92.17" x2="112.66" y2="92.17"/>
    <line class="cls-2" x1="113.62" y1="61.08" x2="113.62" y2="113.63"/>
    <path class="cls-3" d="M38.45,85.79c21.86-.08,43.71-.16,65.57-.24.33-.85,3.05-8.15-1.21-14.95-2.87-4.59-7.26-6.27-8.68-6.75h-45.85c-1.45.67-5.91,2.94-8.63,8.2-3.29,6.37-1.59,12.46-1.21,13.74Z"/>
    <circle class="cls-3" cx="20.9" cy="76.75" r="9.33"/>
  </g>
  <path class="cls-3" d="M58.06,0c-11.19,0-20.26,9.07-20.26,20.26s9.07,20.26,20.26,20.26,20.26-9.07,20.26-20.26S69.25,0,58.06,0ZM67.88,24.34h-6.41v6.41c0,1.91-1.55,3.46-3.46,3.46s-3.46-1.55-3.46-3.46v-6.41h-6.41c-1.91,0-3.46-1.55-3.46-3.46s1.55-3.46,3.46-3.46h6.41v-6.41c0-1.91,1.55-3.46,3.46-3.46s3.46,1.55,3.46,3.46v6.41h6.41c1.91,0,3.46,1.55,3.46,3.46s-1.55,3.46-3.46,3.46Z"/>
</svg>