<svg width="164" height="98" viewBox="0 0 164 98" fill="none" xmlns="http://www.w3.org/2000/svg">
<path d="M141.956 21.0898C170.061 21.5377 163.733 64.2256 162.602 75.7578C162.137 80.4812 161.016 88.8614 158.032 94.8857C156.54 97.8975 153.991 97.8975 152.064 97.8975H141.62C138.636 97.8975 137.145 96.3911 137.145 93.3789C137.145 85.8485 146.316 81.0895 150.572 61.751C153.556 48.1959 149.687 39.1592 141.678 39.1592C131.177 39.16 132.668 67.7732 132.668 70.7871V70.7891C132.668 88.8624 128.252 96.7342 120.732 97.8994C101.302 100.912 77.4656 36.1522 77.5224 31.6309C77.5722 27.8551 84.9828 28.6186 87.9668 31.6309C91.7485 35.4466 96.256 48.4821 101.337 58.7402C104.321 64.7647 109.594 73.8017 116.35 73.8018C125.268 73.8018 119.3 52.7162 122.317 39.1611C124.385 29.8671 129.877 20.8974 141.956 21.0898ZM22.0439 21.0879C34.1228 20.8954 39.6145 29.8652 41.6826 39.1592C44.6996 52.7142 38.7317 73.7998 47.6504 73.7998C54.4056 73.7995 59.6196 64.7626 62.6035 58.7383C65.5874 52.7135 68.5711 34.6412 73.0469 33.1348C75.8774 32.183 79.0145 45.1827 79.0146 46.6895C79.0146 49.7017 62.6032 97.8969 43.2656 97.8975C35.7477 97.8975 31.3291 88.8605 31.3291 70.7871H31.331C31.3311 67.7732 32.8228 39.1592 22.3213 39.1592C14.3124 39.1594 10.4438 48.1961 13.4277 61.751C17.684 81.0895 26.8552 85.8485 26.8554 93.3789C26.8554 96.3911 25.3637 97.8974 22.3799 97.8975H11.9355C10.0085 97.8975 7.4597 97.8975 5.96775 94.8857C2.98382 88.8614 1.8626 80.4812 1.39841 75.7578C0.266992 64.2256 -6.06131 21.5376 22.0439 21.0879ZM22.3213 0C27.2653 0 31.2734 4.04628 31.2734 9.03711C31.2732 14.0277 27.2651 18.0732 22.3213 18.0732C17.3776 18.0731 13.3703 14.0276 13.3701 9.03711C13.3701 4.04639 17.3774 0.000173386 22.3213 0ZM141.681 0C146.624 0.000230348 150.632 4.04642 150.632 9.03711C150.632 14.0276 146.624 18.073 141.681 18.0732C136.737 18.0732 132.729 14.0277 132.728 9.03711C132.728 4.04628 136.737 0 141.681 0Z" fill="#EAE6DB"/>
</svg>
