<?xml version="1.0" encoding="UTF-8"?>
<svg id="Layer_1" data-name="Layer 1" xmlns="http://www.w3.org/2000/svg" viewBox="0 0 109.32 50.11">
  <defs>
    <style>
      .cls-1 {
        fill: #646d55;
      }
    </style>
  </defs>
  <path class="cls-1" d="M26.09,50.11c-.4,0-.8,0-1.21-.03C12.95,49.51.05,39.85,0,25.25c-.02-6.4,2.56-12.51,7.27-17.22C12.22,3.07,18.87.24,25.53.24h.08c10.95.04,17.91,7.91,20.19,10.49.39.44.76.9,1.13,1.37.3.37.59.74.9,1.09,3.96,4.54,7.86,9.09,11.77,13.64,3.07,3.57,6.13,7.14,9.23,10.71,1.87,2.16,4.53,4.11,7.3,5.36,3.77,1.7,7.62,2.24,11.43,1.62,8.37-1.37,15.16-8.04,16.51-16.21,1.75-10.6-5.74-19.65-14-22.28-10.19-3.24-18.58,1.03-27.22,13.82-.77,1.14-2.33,1.45-3.47.67-1.14-.77-1.45-2.33-.67-3.47C68.53,2.51,79.29-2.65,91.6,1.26c11.73,3.73,19.38,15.96,17.41,27.86-1.7,10.26-10.18,18.62-20.64,20.33-4.8.79-9.6.11-14.29-2-3.41-1.53-6.69-3.95-9.02-6.64-3.1-3.58-6.17-7.15-9.24-10.73-3.9-4.54-7.8-9.08-11.75-13.61-.35-.41-.69-.82-1.03-1.24-.32-.4-.64-.8-.99-1.19-2.12-2.4-7.75-8.77-16.46-8.8h-.06c-5.27,0-10.77,2.36-14.73,6.32-3.76,3.76-5.82,8.62-5.81,13.67.03,9.09,7.73,19.26,20.12,19.86,8.96.43,17.33-5.18,20.81-13.98.51-1.28,1.96-1.91,3.25-1.4,1.28.51,1.91,1.96,1.4,3.25-4.12,10.39-13.86,17.16-24.49,17.16Z"/>
  <path class="cls-1" d="M84.14,37.86c-1.38,0-2.5-1.12-2.5-2.5V13.7c0-1.38,1.12-2.5,2.5-2.5s2.5,1.12,2.5,2.5v21.66c0,1.38-1.12,2.5-2.5,2.5Z"/>
  <path class="cls-1" d="M95.11,26.92h-21.66c-1.38,0-2.5-1.12-2.5-2.5s1.12-2.5,2.5-2.5h21.66c1.38,0,2.5,1.12,2.5,2.5s-1.12,2.5-2.5,2.5Z"/>
</svg>