<?xml version="1.0" encoding="UTF-8"?>
<svg id="Layer_1" data-name="Layer 1" xmlns="http://www.w3.org/2000/svg" viewBox="0 0 153.86 97.29">
  <defs>
    <style>
      .cls-1 {
        fill: #646d55;
      }
    </style>
  </defs>
  <path class="cls-1" d="M77.17,72.11c-10.45.23-21.66-20.71-20.81-39.13C57.05,18.32,65.63.13,75.9,0c9.86-.12,18.38,16.44,20.18,29.46,2.68,19.46-8.09,42.41-18.91,42.65Z"/>
  <path class="cls-1" d="M84.76,87.02c-3.24-9.94,13.58-26.72,31.46-31.21,14.24-3.58,34.14-.61,37.22,9.19,2.96,9.4-10.44,22.34-22.39,27.82-17.86,8.18-42.94,4.49-46.29-5.8Z"/>
  <path class="cls-1" d="M69.1,87.02c3.24-9.94-13.58-26.72-31.46-31.21-14.24-3.58-34.14-.61-37.22,9.19-2.96,9.4,10.44,22.34,22.39,27.82,17.86,8.18,42.94,4.49,46.29-5.8Z"/>
</svg>